<?xml version="1.0" standalone="no"?>
<!DOCTYPE svg PUBLIC "-//W3C//DTD SVG 20010904//EN"
 "http://www.w3.org/TR/2001/REC-SVG-20010904/DTD/svg10.dtd">
<svg version="1.0" xmlns="http://www.w3.org/2000/svg"
 width="100.000000pt" height="100.000000pt" viewBox="0 0 100.000000 100.000000"
 preserveAspectRatio="xMidYMid meet">

<g transform="translate(0.000000,100.000000) scale(0.100000,-0.100000)"
fill="#000000" stroke="none">
<path d="M380 944 c0 -41 5 -63 20 -81 l20 -26 0 62 0 61 150 0 150 0 0 -120
0 -120 120 0 120 0 0 -260 0 -260 -150 0 c-143 0 -150 -1 -150 -20 0 -19 7
-20 170 -20 l170 0 0 293 0 292 -128 128 -127 127 -183 0 -182 0 0 -56z m470
-99 l85 -85 -88 0 -87 0 0 85 c0 47 1 85 3 85 1 0 40 -38 87 -85z"/>
<path d="M0 420 l0 -420 310 0 310 0 0 293 0 292 -128 128 -127 127 -183 0
-182 0 0 -420z m340 260 l0 -120 120 0 120 0 0 -260 0 -260 -270 0 -270 0 0
380 0 380 150 0 150 0 0 -120z m130 5 l85 -85 -88 0 -87 0 0 85 c0 47 1 85 3
85 1 0 40 -38 87 -85z"/>
</g>
</svg>
