<?xml version="1.0" standalone="no"?>
<!DOCTYPE svg PUBLIC "-//W3C//DTD SVG 20010904//EN"
 "http://www.w3.org/TR/2001/REC-SVG-20010904/DTD/svg10.dtd">
<svg version="1.0" xmlns="http://www.w3.org/2000/svg"
 width="100.000000pt" height="100.000000pt" viewBox="0 0 100.000000 100.000000"
 preserveAspectRatio="xMidYMid meet">

<g transform="translate(0.000000,100.000000) scale(0.100000,-0.100000)"
fill="#000000" stroke="none">
<path d="M185 855 l-25 -24 0 -261 0 -261 25 -24 c21 -22 33 -25 100 -25 l75
0 0 -45 c0 -35 6 -52 25 -70 24 -25 26 -25 215 -25 258 0 240 -19 240 252 l0
203 -83 83 c-67 66 -88 82 -112 82 -24 0 -45 14 -100 70 l-69 70 -134 0 c-128
0 -134 -1 -157 -25z m285 -39 c0 -24 3 -51 6 -60 5 -13 -1 -16 -30 -16 -39 0
-86 -35 -86 -65 0 -11 -13 -15 -57 -17 l-58 -2 58 -3 c49 -3 57 -7 57 -23 0
-17 -8 -20 -57 -22 l-58 -2 58 -3 c49 -3 57 -7 57 -23 0 -17 -8 -20 -57 -22
l-58 -2 58 -3 c49 -3 57 -7 57 -23 0 -17 -8 -20 -57 -22 l-58 -2 58 -3 c49 -3
57 -7 57 -23 0 -17 -8 -20 -57 -22 l-58 -2 58 -3 c49 -3 57 -7 57 -23 0 -17
-8 -20 -57 -22 l-58 -2 58 -3 57 -4 0 -39 0 -40 -59 0 c-37 0 -63 5 -70 14 -8
9 -11 82 -9 242 l3 228 25 13 c14 7 19 13 11 13 -8 0 -23 -7 -33 -17 -16 -15
-18 -36 -18 -241 0 -266 -1 -262 92 -262 45 0 58 -3 58 -15 0 -12 -14 -15 -70
-15 -114 0 -110 -9 -110 290 0 312 -13 290 165 290 l125 0 0 -44z m79 -74
c-62 -4 -69 4 -69 73 l0 49 60 -59 61 -60 -52 -3z m121 -72 c0 -71 29 -100
100 -100 l50 0 0 -195 c0 -255 18 -235 -220 -235 -167 0 -181 1 -200 20 -19
19 -20 33 -20 270 0 312 -13 290 165 290 l125 0 0 -50z m85 -20 l69 -70 -52 0
c-70 0 -92 22 -92 90 0 28 1 50 3 50 1 0 34 -31 72 -70z"/>
<path d="M427 672 c-15 -16 -17 -48 -17 -244 0 -205 2 -226 18 -241 16 -14 43
-17 174 -17 192 0 191 -1 185 116 l-3 79 -2 -81 c-1 -46 -7 -85 -14 -92 -18
-18 -322 -17 -337 2 -8 9 -11 82 -9 242 l3 228 25 13 c16 8 19 13 9 13 -9 0
-23 -8 -32 -18z"/>
<path d="M622 468 l2 -63 3 58 4 57 54 0 55 0 0 -54 0 -55 -42 -4 -43 -4 48
-1 47 -2 0 65 0 65 -65 0 -65 0 2 -62z"/>
<path d="M483 513 c20 -2 54 -2 75 0 20 2 3 4 -38 4 -41 0 -58 -2 -37 -4z"/>
<path d="M483 463 c20 -2 54 -2 75 0 20 2 3 4 -38 4 -41 0 -58 -2 -37 -4z"/>
<path d="M781 454 c0 -11 3 -14 6 -6 3 7 2 16 -1 19 -3 4 -6 -2 -5 -13z"/>
<path d="M782 400 c0 -19 2 -27 5 -17 2 9 2 25 0 35 -3 9 -5 1 -5 -18z"/>
<path d="M483 413 c20 -2 54 -2 75 0 20 2 3 4 -38 4 -41 0 -58 -2 -37 -4z"/>
<path d="M473 363 c15 -2 37 -2 50 0 12 2 0 4 -28 4 -27 0 -38 -2 -22 -4z"/>
<path d="M608 363 c29 -2 74 -2 100 0 26 2 2 3 -53 3 -55 0 -76 -1 -47 -3z"/>
<path d="M478 313 c17 -2 47 -2 65 0 17 2 3 4 -33 4 -36 0 -50 -2 -32 -4z"/>
<path d="M608 313 c12 -2 32 -2 45 0 12 2 2 4 -23 4 -25 0 -35 -2 -22 -4z"/>
<path d="M703 313 c9 -2 25 -2 35 0 9 3 1 5 -18 5 -19 0 -27 -2 -17 -5z"/>
<path d="M493 263 c26 -2 67 -2 90 0 23 2 2 3 -48 3 -49 0 -68 -1 -42 -3z"/>
<path d="M668 263 c18 -2 45 -2 60 0 15 2 0 4 -33 4 -33 0 -45 -2 -27 -4z"/>
</g>
</svg>
